<mxfile host="app.diagrams.net" agent="Mozilla/5.0 (Windows NT 10.0; Win64; x64) AppleWebKit/537.36 (KHTML, like Gecko) Chrome/134.0.0.0 Safari/537.36" version="26.2.4">
  <diagram name="Page-1" id="cs_DlE6uY1UkQqAsZBn8">
    <mxGraphModel grid="1" page="1" gridSize="10" guides="1" tooltips="1" connect="1" arrows="1" fold="1" pageScale="1" pageWidth="850" pageHeight="1100" math="0" shadow="0">
      <root>
        <mxCell id="0" />
        <mxCell id="1" parent="0" />
        <mxCell id="NvNDws1TLBz8BboGLo_u-1" value="Flow-chart" style="text;html=1;align=center;verticalAlign=middle;whiteSpace=wrap;rounded=0;fontStyle=1;fontFamily=Times New Roman;fontSize=24;labelPosition=center;verticalLabelPosition=middle;" vertex="1" parent="1">
          <mxGeometry x="80" y="91" width="190" height="30" as="geometry" />
        </mxCell>
        <mxCell id="NvNDws1TLBz8BboGLo_u-2" value="Pseudo-code" style="text;html=1;align=center;verticalAlign=middle;whiteSpace=wrap;rounded=0;fontStyle=1;fontFamily=Times New Roman;fontSize=24;labelPosition=center;verticalLabelPosition=middle;" vertex="1" parent="1">
          <mxGeometry x="453" y="91" width="190" height="30" as="geometry" />
        </mxCell>
        <mxCell id="NvNDws1TLBz8BboGLo_u-3" style="edgeStyle=orthogonalEdgeStyle;rounded=0;orthogonalLoop=1;jettySize=auto;html=1;exitX=0.5;exitY=1;exitDx=0;exitDy=0;entryX=0.5;entryY=0;entryDx=0;entryDy=0;" edge="1" parent="1" source="NvNDws1TLBz8BboGLo_u-4" target="NvNDws1TLBz8BboGLo_u-6">
          <mxGeometry relative="1" as="geometry" />
        </mxCell>
        <mxCell id="NvNDws1TLBz8BboGLo_u-4" value="Begin" style="ellipse;whiteSpace=wrap;html=1;" vertex="1" parent="1">
          <mxGeometry x="115" y="161" width="125" height="40" as="geometry" />
        </mxCell>
        <mxCell id="NvNDws1TLBz8BboGLo_u-18" style="edgeStyle=orthogonalEdgeStyle;rounded=0;orthogonalLoop=1;jettySize=auto;html=1;exitX=0.5;exitY=1;exitDx=0;exitDy=0;entryX=0.5;entryY=0;entryDx=0;entryDy=0;" edge="1" parent="1" source="NvNDws1TLBz8BboGLo_u-6" target="NvNDws1TLBz8BboGLo_u-14">
          <mxGeometry relative="1" as="geometry" />
        </mxCell>
        <mxCell id="NvNDws1TLBz8BboGLo_u-6" value="Input N, i = 1" style="shape=parallelogram;perimeter=parallelogramPerimeter;whiteSpace=wrap;html=1;fixedSize=1;" vertex="1" parent="1">
          <mxGeometry x="103.5" y="240.5" width="143" height="49.5" as="geometry" />
        </mxCell>
        <mxCell id="NvNDws1TLBz8BboGLo_u-37" style="edgeStyle=orthogonalEdgeStyle;rounded=0;orthogonalLoop=1;jettySize=auto;html=1;exitX=0.5;exitY=1;exitDx=0;exitDy=0;entryX=0.5;entryY=0;entryDx=0;entryDy=0;" edge="1" parent="1" source="NvNDws1TLBz8BboGLo_u-8" target="NvNDws1TLBz8BboGLo_u-9">
          <mxGeometry relative="1" as="geometry" />
        </mxCell>
        <mxCell id="NvNDws1TLBz8BboGLo_u-8" value="Display max" style="shape=parallelogram;perimeter=parallelogramPerimeter;whiteSpace=wrap;html=1;fixedSize=1;" vertex="1" parent="1">
          <mxGeometry x="104.74" y="860" width="140.5" height="60" as="geometry" />
        </mxCell>
        <mxCell id="NvNDws1TLBz8BboGLo_u-9" value="End" style="ellipse;whiteSpace=wrap;html=1;" vertex="1" parent="1">
          <mxGeometry x="112.49000000000001" y="960" width="125" height="40" as="geometry" />
        </mxCell>
        <mxCell id="NvNDws1TLBz8BboGLo_u-12" value="&lt;div&gt;BEGIN&lt;/div&gt;&lt;div&gt;&amp;nbsp; &amp;nbsp; INPUT N&lt;/div&gt;&lt;div&gt;&amp;nbsp; &amp;nbsp; FOR i = 1 TO N&lt;/div&gt;&lt;div&gt;&amp;nbsp; &amp;nbsp; &amp;nbsp; &amp;nbsp; INPUT a[i]&lt;/div&gt;&lt;div&gt;&amp;nbsp; &amp;nbsp; ENDFOR&lt;/div&gt;&lt;div&gt;&amp;nbsp; &amp;nbsp; max = a[1]&lt;/div&gt;&lt;div&gt;&amp;nbsp; &amp;nbsp; FOR i = 2 TO N&lt;/div&gt;&lt;div&gt;&amp;nbsp; &amp;nbsp; &amp;nbsp; &amp;nbsp; IF a[i] &amp;gt; max THEN max = a[i]ENDIF&lt;/div&gt;&lt;div&gt;&amp;nbsp; &amp;nbsp; ENDFOR&lt;/div&gt;&lt;div&gt;&amp;nbsp; &amp;nbsp; DISPLAY max&lt;/div&gt;&lt;div&gt;END&lt;/div&gt;" style="text;html=1;align=left;verticalAlign=middle;whiteSpace=wrap;rounded=0;labelPosition=center;verticalLabelPosition=middle;fontFamily=Times New Roman;fontSize=18;" vertex="1" parent="1">
          <mxGeometry x="478" y="141" width="352" height="259" as="geometry" />
        </mxCell>
        <mxCell id="NvNDws1TLBz8BboGLo_u-32" style="edgeStyle=orthogonalEdgeStyle;rounded=0;orthogonalLoop=1;jettySize=auto;html=1;exitX=0.5;exitY=0;exitDx=0;exitDy=0;entryX=0.5;entryY=1;entryDx=0;entryDy=0;" edge="1" parent="1" source="NvNDws1TLBz8BboGLo_u-13" target="NvNDws1TLBz8BboGLo_u-30">
          <mxGeometry relative="1" as="geometry" />
        </mxCell>
        <mxCell id="NvNDws1TLBz8BboGLo_u-13" value="max = a[i]" style="rounded=0;whiteSpace=wrap;html=1;" vertex="1" parent="1">
          <mxGeometry x="302.25" y="735" width="150.75" height="60" as="geometry" />
        </mxCell>
        <mxCell id="NvNDws1TLBz8BboGLo_u-19" style="edgeStyle=orthogonalEdgeStyle;rounded=0;orthogonalLoop=1;jettySize=auto;html=1;exitX=1;exitY=0.5;exitDx=0;exitDy=0;entryX=0;entryY=0.5;entryDx=0;entryDy=0;" edge="1" parent="1" source="NvNDws1TLBz8BboGLo_u-14" target="NvNDws1TLBz8BboGLo_u-15">
          <mxGeometry relative="1" as="geometry" />
        </mxCell>
        <mxCell id="NvNDws1TLBz8BboGLo_u-24" value="YES" style="edgeLabel;html=1;align=center;verticalAlign=middle;resizable=0;points=[];" connectable="0" vertex="1" parent="NvNDws1TLBz8BboGLo_u-19">
          <mxGeometry x="-0.1166" y="3" relative="1" as="geometry">
            <mxPoint as="offset" />
          </mxGeometry>
        </mxCell>
        <mxCell id="NvNDws1TLBz8BboGLo_u-26" style="edgeStyle=orthogonalEdgeStyle;rounded=0;orthogonalLoop=1;jettySize=auto;html=1;exitX=0.5;exitY=1;exitDx=0;exitDy=0;entryX=0.5;entryY=0;entryDx=0;entryDy=0;" edge="1" parent="1" source="NvNDws1TLBz8BboGLo_u-14" target="NvNDws1TLBz8BboGLo_u-25">
          <mxGeometry relative="1" as="geometry" />
        </mxCell>
        <mxCell id="NvNDws1TLBz8BboGLo_u-27" value="NO" style="edgeLabel;html=1;align=center;verticalAlign=middle;resizable=0;points=[];" connectable="0" vertex="1" parent="NvNDws1TLBz8BboGLo_u-26">
          <mxGeometry relative="1" as="geometry">
            <mxPoint as="offset" />
          </mxGeometry>
        </mxCell>
        <mxCell id="NvNDws1TLBz8BboGLo_u-14" value="i &amp;lt;= N" style="rhombus;whiteSpace=wrap;html=1;" vertex="1" parent="1">
          <mxGeometry x="115" y="420" width="120" height="70" as="geometry" />
        </mxCell>
        <mxCell id="NvNDws1TLBz8BboGLo_u-22" style="edgeStyle=orthogonalEdgeStyle;rounded=0;orthogonalLoop=1;jettySize=auto;html=1;exitX=0.5;exitY=0;exitDx=0;exitDy=0;entryX=0.5;entryY=1;entryDx=0;entryDy=0;" edge="1" parent="1" source="NvNDws1TLBz8BboGLo_u-15" target="NvNDws1TLBz8BboGLo_u-16">
          <mxGeometry relative="1" as="geometry" />
        </mxCell>
        <mxCell id="NvNDws1TLBz8BboGLo_u-15" value="Input a[i]" style="shape=parallelogram;perimeter=parallelogramPerimeter;whiteSpace=wrap;html=1;fixedSize=1;" vertex="1" parent="1">
          <mxGeometry x="286.13" y="430.25" width="143" height="49.5" as="geometry" />
        </mxCell>
        <mxCell id="NvNDws1TLBz8BboGLo_u-23" style="edgeStyle=orthogonalEdgeStyle;rounded=0;orthogonalLoop=1;jettySize=auto;html=1;exitX=0;exitY=0.5;exitDx=0;exitDy=0;entryX=1;entryY=0;entryDx=0;entryDy=0;" edge="1" parent="1" source="NvNDws1TLBz8BboGLo_u-16" target="NvNDws1TLBz8BboGLo_u-14">
          <mxGeometry relative="1" as="geometry" />
        </mxCell>
        <mxCell id="NvNDws1TLBz8BboGLo_u-16" value="i = i + 1" style="rounded=0;whiteSpace=wrap;html=1;" vertex="1" parent="1">
          <mxGeometry x="282.26" y="320" width="150.75" height="60" as="geometry" />
        </mxCell>
        <mxCell id="NvNDws1TLBz8BboGLo_u-29" style="edgeStyle=orthogonalEdgeStyle;rounded=0;orthogonalLoop=1;jettySize=auto;html=1;exitX=0.5;exitY=1;exitDx=0;exitDy=0;entryX=0.5;entryY=0;entryDx=0;entryDy=0;" edge="1" parent="1" source="NvNDws1TLBz8BboGLo_u-25" target="NvNDws1TLBz8BboGLo_u-28">
          <mxGeometry relative="1" as="geometry" />
        </mxCell>
        <mxCell id="NvNDws1TLBz8BboGLo_u-25" value="i = 2&lt;br&gt;max = a[1]" style="rounded=0;whiteSpace=wrap;html=1;" vertex="1" parent="1">
          <mxGeometry x="99.61999999999999" y="560" width="150.75" height="60" as="geometry" />
        </mxCell>
        <mxCell id="NvNDws1TLBz8BboGLo_u-31" style="edgeStyle=orthogonalEdgeStyle;rounded=0;orthogonalLoop=1;jettySize=auto;html=1;exitX=1;exitY=0.5;exitDx=0;exitDy=0;entryX=0;entryY=0.5;entryDx=0;entryDy=0;" edge="1" parent="1" source="NvNDws1TLBz8BboGLo_u-28" target="NvNDws1TLBz8BboGLo_u-13">
          <mxGeometry relative="1" as="geometry" />
        </mxCell>
        <mxCell id="NvNDws1TLBz8BboGLo_u-34" value="YES" style="edgeLabel;html=1;align=center;verticalAlign=middle;resizable=0;points=[];" connectable="0" vertex="1" parent="NvNDws1TLBz8BboGLo_u-31">
          <mxGeometry x="-0.1671" y="1" relative="1" as="geometry">
            <mxPoint as="offset" />
          </mxGeometry>
        </mxCell>
        <mxCell id="NvNDws1TLBz8BboGLo_u-35" style="edgeStyle=orthogonalEdgeStyle;rounded=0;orthogonalLoop=1;jettySize=auto;html=1;exitX=0.5;exitY=1;exitDx=0;exitDy=0;entryX=0.5;entryY=0;entryDx=0;entryDy=0;" edge="1" parent="1" source="NvNDws1TLBz8BboGLo_u-28" target="NvNDws1TLBz8BboGLo_u-8">
          <mxGeometry relative="1" as="geometry" />
        </mxCell>
        <mxCell id="NvNDws1TLBz8BboGLo_u-36" value="NO" style="edgeLabel;html=1;align=center;verticalAlign=middle;resizable=0;points=[];" connectable="0" vertex="1" parent="NvNDws1TLBz8BboGLo_u-35">
          <mxGeometry x="-0.0333" relative="1" as="geometry">
            <mxPoint as="offset" />
          </mxGeometry>
        </mxCell>
        <mxCell id="NvNDws1TLBz8BboGLo_u-28" value="i &amp;lt;= N" style="rhombus;whiteSpace=wrap;html=1;" vertex="1" parent="1">
          <mxGeometry x="114.99" y="730" width="120" height="70" as="geometry" />
        </mxCell>
        <mxCell id="NvNDws1TLBz8BboGLo_u-33" style="edgeStyle=orthogonalEdgeStyle;rounded=0;orthogonalLoop=1;jettySize=auto;html=1;exitX=0;exitY=0.5;exitDx=0;exitDy=0;entryX=1;entryY=0;entryDx=0;entryDy=0;" edge="1" parent="1" source="NvNDws1TLBz8BboGLo_u-30" target="NvNDws1TLBz8BboGLo_u-28">
          <mxGeometry relative="1" as="geometry" />
        </mxCell>
        <mxCell id="NvNDws1TLBz8BboGLo_u-30" value="i = i + 1" style="rounded=0;whiteSpace=wrap;html=1;" vertex="1" parent="1">
          <mxGeometry x="300" y="640" width="150.75" height="60" as="geometry" />
        </mxCell>
      </root>
    </mxGraphModel>
  </diagram>
</mxfile>
